<?xml version="1.0" standalone="no"?>
<!DOCTYPE svg PUBLIC "-//W3C//DTD SVG 20010904//EN"
 "http://www.w3.org/TR/2001/REC-SVG-20010904/DTD/svg10.dtd">
<svg version="1.0" xmlns="http://www.w3.org/2000/svg"
 width="455.000000pt" height="379.000000pt" viewBox="0 0 455.000000 379.000000"
 preserveAspectRatio="xMidYMid meet">

<g transform="translate(0.000000,379.000000) scale(0.100000,-0.100000)"
fill="#000000" stroke="none">
<path d="M0 1895 l0 -1895 2275 0 2275 0 0 1895 0 1895 -2275 0 -2275 0 0
-1895z m2018 1386 c2 -19 -6 -55 -18 -82 l-21 -49 21 -46 c25 -58 26 -121 1
-176 -11 -24 -22 -51 -25 -60 -7 -25 -53 -24 -61 1 -3 10 2 38 11 62 22 57 22
113 -2 172 -18 46 -18 48 -1 95 10 26 21 58 24 72 8 36 23 51 47 48 16 -2 22
-11 24 -37z m300 1 c2 -20 -5 -49 -17 -73 -26 -49 -26 -70 -1 -119 24 -48 26
-100 3 -143 -9 -18 -19 -45 -23 -62 -5 -25 -11 -30 -35 -30 -25 0 -31 4 -33
27 -2 14 7 50 19 78 20 46 21 56 10 84 -39 93 -39 111 -1 216 7 19 15 41 16
48 3 8 15 12 31 10 24 -2 29 -8 31 -36z m316 16 c8 -14 6 -29 -8 -65 -28 -73
-30 -107 -10 -138 23 -36 24 -119 2 -160 -9 -16 -19 -43 -23 -58 -5 -24 -10
-28 -33 -25 -36 4 -40 42 -12 112 l22 52 -21 47 c-27 58 -27 126 -1 174 11 21
20 45 20 54 0 8 3 19 7 23 12 12 45 2 57 -16z m311 -604 c96 -52 127 -107 133
-232 5 -113 -8 -167 -56 -223 -44 -52 -101 -78 -168 -79 -50 0 -52 -1 -98 -60
-51 -64 -105 -112 -176 -153 l-45 -27 166 0 c115 0 169 -4 177 -12 7 -7 12
-45 12 -99 l0 -87 178 -4 c205 -4 242 -14 324 -95 73 -72 93 -127 93 -253 -1
-78 -5 -115 -18 -145 -27 -61 -67 -115 -106 -141 l-36 -24 73 0 c65 0 72 -2
72 -20 0 -19 -7 -20 -93 -20 -93 0 -94 0 -135 -36 -111 -95 -138 -245 -67
-384 32 -62 17 -65 -23 -5 -77 116 -65 282 28 388 l32 37 -964 0 -963 0 -4
-203 c-1 -112 -6 -219 -10 -238 l-8 -34 -6 35 c-3 19 -9 123 -12 230 -4 107
-8 196 -10 198 -7 8 -65 -30 -88 -58 -32 -38 -38 -68 -40 -201 -2 -97 0 -107
26 -151 31 -54 22 -64 -17 -18 -36 43 -46 89 -46 208 0 113 13 158 57 204 l27
28 -42 0 c-35 0 -42 3 -42 20 0 19 7 20 112 20 l111 0 -6 212 c-4 116 -7 251
-7 300 l0 88 -99 0 c-103 0 -131 11 -117 45 5 13 45 15 291 15 l285 0 0 88 c0
55 4 92 12 100 8 8 63 12 177 12 159 1 165 2 136 17 -148 80 -262 229 -306
401 -23 91 -28 349 -7 370 10 10 151 12 633 10 613 -3 620 -3 660 -24z"/>
<path d="M1703 2634 c-10 -26 5 -245 20 -299 26 -93 76 -177 151 -251 118
-118 257 -171 421 -161 156 9 278 67 383 182 104 114 140 213 149 413 l6 132
-562 0 c-505 0 -562 -2 -568 -16z"/>
<path d="M2888 2503 c-4 -113 -9 -151 -29 -210 l-25 -73 31 0 c42 0 111 47
132 90 24 49 21 210 -5 254 -17 28 -75 76 -92 76 -4 0 -10 -62 -12 -137z"/>
<path d="M1700 1790 l0 -70 565 0 565 0 0 70 0 70 -565 0 -565 0 0 -70z"/>
<path d="M1340 1559 c0 -58 -3 -194 -7 -302 l-6 -197 935 0 c1045 0 998 -3
1081 70 60 53 87 111 94 203 10 131 -39 238 -134 294 l-48 28 -958 5 -957 5 0
-106z m625 -284 c0 -19 -7 -20 -125 -20 -123 0 -125 0 -128 23 l-3 23 128 -3
c120 -3 128 -4 128 -23z"/>
</g>
</svg>
